<?xml version="1.0" encoding="UTF-8" standalone="no"?>
<svg
   xmlns:dc="http://purl.org/dc/elements/1.1/"
   xmlns:cc="http://creativecommons.org/ns#"
   xmlns:rdf="http://www.w3.org/1999/02/22-rdf-syntax-ns#"
   xmlns:svg="http://www.w3.org/2000/svg"
   xmlns="http://www.w3.org/2000/svg"
   xmlns:sodipodi="http://sodipodi.sourceforge.net/DTD/sodipodi-0.dtd"
   xmlns:inkscape="http://www.inkscape.org/namespaces/inkscape"
   inkscape:version="1.0 (4035a4f, 2020-05-01)"
   sodipodi:docname="linkedin-dark.svg"
   xml:space="preserve"
   style="enable-background:new 0 0 438.536 438.536;"
   viewBox="0 0 438.536 438.536"
   height="438.536px"
   width="438.536px"
   y="0px"
   x="0px"
   id="Capa_1"
   version="1.1"><metadata
   id="metadata872"><rdf:RDF><cc:Work
       rdf:about=""><dc:format>image/svg+xml</dc:format><dc:type
         rdf:resource="http://purl.org/dc/dcmitype/StillImage" /></cc:Work></rdf:RDF></metadata><defs
   id="defs870" /><sodipodi:namedview
   inkscape:current-layer="g835"
   inkscape:window-maximized="0"
   inkscape:window-y="25"
   inkscape:window-x="0"
   inkscape:cy="219.26801"
   inkscape:cx="219.26801"
   inkscape:zoom="1.6988343"
   showgrid="false"
   id="namedview868"
   inkscape:window-height="891"
   inkscape:window-width="1357"
   inkscape:pageshadow="2"
   inkscape:pageopacity="0"
   guidetolerance="10"
   gridtolerance="10"
   objecttolerance="10"
   borderopacity="1"
   bordercolor="#666666"
   pagecolor="#ffffff" />
<g
   id="g835">
	<path
   style="stroke-width:1;fill:#27183c;fill-opacity:1"
   id="path833"
   d="M 414.41,24.123 C 398.333,8.0419998 378.963,0 356.315,0 H 82.228 C 59.58,0 40.21,8.0419998 24.126,24.123 8.045,40.207 0.003,59.576001 0.003,82.224999 V 356.309 c 0,22.647 8.042,42.018 24.123,58.102 16.084,16.084 35.454,24.126 58.102,24.126 h 274.084 c 22.648,0 42.018,-8.042 58.095,-24.126 16.084,-16.084 24.126,-35.454 24.126,-58.102 V 82.224999 C 438.532,59.576001 430.49,40.204 414.41,24.123 Z M 133.618,367.157 H 67.666 V 169.016 h 65.952 z m -5.992,-234.825 c -6.851,6.567 -15.893,9.851 -27.124,9.851 h -0.288 c -10.848,0 -19.648,-3.284 -26.407,-9.851 -6.76,-6.567 -10.138,-14.703 -10.138,-24.41 0,-9.897 3.476,-18.082999 10.421,-24.555998 6.95,-6.471004 15.942,-9.708003 26.98,-9.708003 11.039,0 19.89,3.236999 26.553,9.708003 6.661,6.472999 10.088,14.658998 10.277,24.555998 -0.001,9.703 -3.423,17.839 -10.274,24.41 z m 243.247,234.825 h -65.952 v -105.92 c 0,-29.879 -11.036,-44.823 -33.116,-44.823 -8.374,0 -15.42,2.331 -21.128,6.995 -5.715,4.661 -9.996,10.324 -12.847,16.991 -1.335,3.422 -1.999,8.75 -1.999,15.981 v 110.775 h -65.952 c 0.571,-119.529 0.571,-185.579 0,-198.142 h 65.952 v 27.974 c 13.867,-21.681 33.558,-32.544 59.101,-32.544 22.84,0 41.21,7.52 55.104,22.554 13.895,15.037 20.841,37.214 20.841,66.519 v 113.64 z" />
</g>
<g
   id="g837">
</g>
<g
   id="g839">
</g>
<g
   id="g841">
</g>
<g
   id="g843">
</g>
<g
   id="g845">
</g>
<g
   id="g847">
</g>
<g
   id="g849">
</g>
<g
   id="g851">
</g>
<g
   id="g853">
</g>
<g
   id="g855">
</g>
<g
   id="g857">
</g>
<g
   id="g859">
</g>
<g
   id="g861">
</g>
<g
   id="g863">
</g>
<g
   id="g865">
</g>
</svg>
